<?xml version="1.0" standalone="no"?>
<!DOCTYPE svg PUBLIC "-//W3C//DTD SVG 20010904//EN"
 "http://www.w3.org/TR/2001/REC-SVG-20010904/DTD/svg10.dtd">
<svg version="1.0" xmlns="http://www.w3.org/2000/svg"
 width="700.000000pt" height="700.000000pt" viewBox="0 0 700.000000 700.000000"
 preserveAspectRatio="xMidYMid meet">
<metadata>
Created by potrace 1.14, written by Peter Selinger 2001-2017
</metadata>
<g transform="translate(0.000000,700.000000) scale(0.100000,-0.100000)"
fill="#000000" stroke="none">
<path d="M3137 6769 c-182 -43 -228 -211 -132 -479 62 -172 248 -503 296 -527
20 -10 27 -10 40 5 15 15 40 90 65 187 4 17 8 32 9 35 10 36 18 77 42 205 22
124 22 342 -2 410 -49 145 -159 201 -318 164z"/>
<path d="M4355 6648 c-85 -30 -144 -122 -169 -263 -14 -76 -16 -397 -3 -465 3
-14 8 -47 12 -75 10 -82 24 -115 48 -115 20 0 83 60 136 130 14 19 31 40 37
45 27 23 151 217 190 295 76 153 89 261 39 345 -20 34 -39 51 -88 74 -69 34
-155 46 -202 29z"/>
<path d="M1993 6385 c-94 -28 -197 -111 -219 -176 -26 -78 -20 -138 24 -224
71 -143 269 -330 537 -509 119 -80 142 -87 166 -57 10 12 16 29 14 39 -1 9 -6
40 -9 67 -4 28 -9 64 -12 80 -3 17 -7 39 -9 50 -5 38 -36 180 -45 210 -5 17
-19 62 -30 100 -27 89 -29 94 -79 196 -90 183 -210 263 -338 224z"/>
<path d="M5438 6026 c-104 -37 -209 -189 -302 -435 -18 -47 -43 -123 -56 -168
-19 -68 -21 -85 -10 -97 19 -23 30 -21 142 32 309 146 491 304 514 446 11 73
-59 173 -151 217 -47 22 -86 23 -137 5z"/>
<path d="M1050 5532 c-58 -20 -138 -100 -174 -174 -109 -223 38 -391 454 -519
173 -54 505 -114 545 -99 50 19 42 50 -47 183 -165 247 -359 464 -486 545
-110 71 -210 92 -292 64z"/>
<path d="M6135 5012 c-89 -35 -236 -149 -351 -272 -124 -132 -133 -149 -93
-170 23 -13 243 -6 349 11 114 18 121 19 194 45 162 56 215 156 155 288 -24
53 -37 69 -79 95 -42 25 -116 27 -175 3z"/>
<path d="M587 4375 c-59 -15 -124 -59 -155 -105 -50 -74 -71 -232 -44 -327 7
-24 30 -60 55 -85 78 -80 178 -111 362 -112 177 -1 318 19 568 80 167 40 256
74 258 97 5 48 -8 61 -165 156 -401 242 -699 343 -879 296z"/>
<path d="M6320 3814 c-64 -12 -194 -52 -255 -79 -197 -86 -198 -94 -7 -171
293 -117 483 -122 546 -15 26 45 27 142 3 192 -36 74 -142 101 -287 73z"/>
<path d="M988 3185 c-2 -1 -37 -5 -78 -8 -192 -15 -325 -63 -412 -148 -35 -36
-51 -61 -64 -104 -34 -119 8 -285 95 -374 157 -160 450 -84 875 227 49 35 98
72 110 82 221 184 237 201 216 239 -14 27 -59 41 -185 56 -27 3 -65 7 -83 10
-118 14 -463 29 -474 20z"/>
<path d="M1975 2365 c-159 -49 -273 -90 -405 -147 -580 -249 -735 -539 -437
-818 222 -207 504 -50 801 445 78 130 233 439 240 480 8 43 -17 75 -57 75 -17
-1 -81 -16 -142 -35z"/>
<path d="M2774 1917 c-68 -39 -408 -370 -521 -507 -223 -272 -307 -491 -251
-653 46 -132 239 -248 406 -244 158 4 274 122 358 363 18 52 33 97 33 99 0 3
5 29 10 58 6 28 14 63 16 77 10 45 35 243 40 315 11 139 13 438 4 464 -17 42
-52 53 -95 28z"/>
<path d="M3597 1789 c-38 -29 -176 -351 -253 -589 -26 -79 -70 -244 -79 -295
-42 -236 -35 -381 22 -502 31 -64 87 -117 162 -151 50 -23 69 -26 176 -26 69
-1 138 5 162 12 100 30 184 117 219 225 31 97 27 284 -10 482 -38 204 -262
796 -319 843 -25 21 -55 22 -80 1z"/>
</g>
</svg>
