<?xml version="1.0" encoding="UTF-8" standalone="no"?>
<!-- Created with Inkscape (http://www.inkscape.org/) -->

<svg
   width="1000.0001"
   height="1000.0001"
   viewBox="0 0 264.58335 264.58335"
   version="1.1"
   id="svg1"
   sodipodi:docname="wip-logo-dynamic-white-gradient.svg"
   inkscape:version="1.3.2 (091e20e, 2023-11-25, custom)"
   xmlns:inkscape="http://www.inkscape.org/namespaces/inkscape"
   xmlns:sodipodi="http://sodipodi.sourceforge.net/DTD/sodipodi-0.dtd"
   xmlns="http://www.w3.org/2000/svg"
   xmlns:svg="http://www.w3.org/2000/svg">
  <sodipodi:namedview
     id="namedview1"
     pagecolor="#505050"
     bordercolor="#eeeeee"
     borderopacity="1"
     inkscape:showpageshadow="0"
     inkscape:pageopacity="0"
     inkscape:pagecheckerboard="0"
     inkscape:deskcolor="#505050"
     inkscape:zoom="0.75999991"
     inkscape:cx="499.34217"
     inkscape:cy="500.00006"
     inkscape:window-width="1920"
     inkscape:window-height="1017"
     inkscape:window-x="-8"
     inkscape:window-y="-8"
     inkscape:window-maximized="1"
     inkscape:current-layer="g85" />
  <defs
     id="defs1" />
  <g
     id="g85"
     style="display:inline">
    <path
       id="path82"
       style="font-size:88.1944px;font-family:Glegoo;-inkscape-font-specification:Glegoo;display:inline;fill:#ffffff;fill-opacity:1;stroke:#ffffff;stroke-width:1.05833;stroke-linecap:round;stroke-opacity:1"
       d="m 229.01037,193.49528 c -7.25976,-0.003 -14.51953,-0.006 -21.77929,-0.008 0,3.58724 0,7.17448 0,10.76172 1.76432,0 3.52864,0 5.29297,0 0,16.40364 0,32.80729 0,49.21093 -1.76433,0 -3.52865,0 -5.29297,0 0,3.58724 0,7.17448 0,10.76172 8.34961,0 16.69922,0 25.04882,0 0,-3.58724 1e-5,-7.17448 0,-10.76172 -2.35156,0 -4.70312,0 -7.05468,0 0,-4.50195 0,-9.0039 0,-13.50586 6.25471,-0.0444 12.70787,0.48438 18.72433,-1.60326 3.73148,-1.24428 7.24368,-3.64745 9.05884,-7.22502 2.56317,-4.66634 2.81852,-10.14368 2.80604,-15.34981 -0.0448,-5.2366 -0.86267,-10.74472 -3.96725,-15.10723 -1.81896,-2.61071 -4.51772,-4.52339 -7.51856,-5.54093 -4.8891,-1.79076 -10.19153,-1.65949 -15.31825,-1.63273 z m 4.24219,11.54687 c 2.5552,0.10052 5.43938,0.0974 7.4622,1.90567 2.05541,2.1828 2.17155,5.36071 2.37569,8.18418 0.0892,3.05952 0.022,6.20399 -0.93987,9.13566 -0.61036,1.6581 -1.93666,3.13083 -3.72213,3.49475 -3.41242,1.03957 -7.01862,0.48926 -10.52394,0.64765 -0.89309,0.001 -1.78619,0.002 -2.67929,0.003 0,-7.79037 0,-15.58073 0,-23.3711 2.67578,0 5.35156,1e-5 8.02734,0 z" />
    <path
       id="path83"
       style="font-size:88.1944px;font-family:Glegoo;-inkscape-font-specification:Glegoo;display:inline;fill:#ffffff;fill-opacity:1;stroke:#ffffff;stroke-width:1.05833;stroke-linecap:round;stroke-opacity:1"
       d="m 174.03308,146.23075 c 0,3.05795 0,6.11589 0,9.17383 2.05794,0 4.11588,0 6.17383,0 -1e-5,16.75651 0,33.51302 0,50.26953 -2.05795,0 -4.11589,0 -6.17383,0 0,3.23373 0,6.46745 0,9.70117 7.99674,0 15.99349,1e-5 23.99023,0 0,-3.23372 0,-6.46744 0,-9.70117 -2.05794,0 -4.11588,0 -6.17383,0 0,-16.75651 0,-33.51302 0,-50.26953 2.05795,0 4.11589,0 6.17383,0 0,-3.23437 0,-6.46875 0,-9.70312 -7.99674,0 -15.99349,0 -23.99023,0 0,0.17643 0,0.35286 0,0.52929 z" />
    <path
       id="path84"
       style="font-size:88.1944px;font-family:Glegoo;-inkscape-font-specification:Glegoo;display:inline;fill:#ffffff;fill-opacity:1;stroke:#ffffff;stroke-width:1.05833;stroke-linecap:round;stroke-opacity:1"
       d="m 91.766294,97.98307 c 0,3.05794 0,6.11588 0,9.17383 1.384114,0 2.768229,0 4.152343,0 4.527473,19.99086 9.053863,39.98195 13.582013,59.97266 4.49935,0 8.9987,0 13.49803,0 3.08778,-14.13176 6.17157,-28.26439 9.25782,-42.39649 3.10945,14.13215 6.21824,28.26444 9.32812,42.39649 4.5026,0 9.00521,0 13.50781,0 4.4923,-19.99145 8.99,-39.98168 13.48438,-59.97266 1.41341,0 2.82682,0 4.24023,0 0,-3.23438 0,-6.46875 0,-9.703127 -7.11458,0 -14.22916,0 -21.34375,0 0,3.234377 0,6.468747 0,9.703127 1.75456,0 3.50912,0 5.26367,0 -2.86523,13.03125 -5.73046,26.0625 -8.5957,39.09375 -3.5303,-16.26555 -7.0578,-32.53171 -10.58984,-48.796877 -3.50651,0 -7.01302,0 -10.51953,0 -3.55511,16.261997 -7.10647,32.524807 -10.66015,48.787117 -2.84244,-13.028 -5.68489,-26.05599 -8.52734,-39.08399 1.75521,0 3.51042,0 5.26563,0 0,-3.23438 0,-6.46875 0,-9.703127 -7.11459,0 -14.229153,0 -21.343736,0 0,0.176433 0,0.352865 0,0.529297 z" />
    <path
       d="m 264.187,264.187 -8.24494,-8.26832 -8.24493,-8.26833 -8.24494,-8.26832 -8.24494,-8.26832 -8.24494,-8.26833 -8.24494,-8.26832 -8.24493,-8.26833 -8.24494,-8.26832 -8.24494,-8.26832 -8.24494,-8.26833 -8.24493,-8.26832 -8.24494,-8.26833 -8.24494,-8.26832 -8.24494,-8.26832 -8.24493,-8.26833 -8.24494,-8.26832"
       style="display:none;fill:#000000;stroke:#000000;stroke-width:0.792237;stroke-linecap:round"
       id="path85" />
  </g>
  <g
     id="g76"
     style="display:inline"
     transform="rotate(-90,73.437474,185.59309)">
    <g
       id="g99"
       style="display:none">
      <path
         style="color:#000000;display:inline;fill:#000000;stroke-linecap:round;-inkscape-stroke:none"
         id="path76-5"
         transform="matrix(0,-1.125,1.2641552,0,-81.855566,402.85345)"
         d="m 141.467,70.225 c -24.54069,0 -8.93169,33.45808 -2.43804,45.63528 1.29922,2.43637 3.57689,2.43632 4.87614,-1.1e-4 6.49368,-12.1773 22.10251,-45.63517 -2.4381,-45.63517 z" />
      <path
         style="color:#000000;display:inline;fill:#000000;stroke-linecap:round;-inkscape-stroke:none"
         id="path76-8-7"
         transform="matrix(0.4439748,-0.97216918,1.0924203,0.49889161,-119.49098,292.81744)"
         d="m 141.467,70.225 c -24.54069,0 -8.93169,33.45808 -2.43804,45.63528 1.29922,2.43637 3.57689,2.43632 4.87614,-1.1e-4 6.49368,-12.1773 22.10251,-45.63517 -2.4381,-45.63517 z" />
      <path
         style="color:#000000;display:inline;fill:#000000;stroke-linecap:round;-inkscape-stroke:none"
         id="path76-8-0-1"
         transform="matrix(0.76519651,-0.66304644,0.74506098,0.85984636,-106.81956,181.13936)"
         d="m 141.467,70.225 c -24.54069,0 -8.93169,33.45808 -2.43804,45.63528 1.29922,2.43637 3.57689,2.43632 4.87614,-1.1e-4 6.49368,-12.1773 22.10251,-45.63517 -2.4381,-45.63517 z" />
      <path
         style="color:#000000;display:inline;fill:#000000;stroke-linecap:round;-inkscape-stroke:none"
         id="path76-8-0-9-3"
         transform="matrix(0.91751518,-0.26940671,0.30273056,1.0310058,-49.495066,88.996492)"
         d="m 141.467,70.225 c -24.54069,0 -8.93169,33.45808 -2.43804,45.63528 1.29922,2.43637 3.57689,2.43632 4.87614,-1.1e-4 6.49368,-12.1773 22.10251,-45.63517 -2.4381,-45.63517 z" />
      <path
         style="color:#000000;display:inline;fill:#000000;stroke-linecap:round;-inkscape-stroke:none"
         id="path76-8-0-9-0-8"
         transform="matrix(0.89083928,0.12808348,-0.14392658,1.0010304,38.649662,32.548277)"
         d="m 141.467,70.225 c -24.54069,0 -8.93169,33.45808 -2.43804,45.63528 1.29922,2.43637 3.57689,2.43632 4.87614,-1.1e-4 6.49368,-12.1773 22.10251,-45.63517 -2.4381,-45.63517 z" />
      <path
         style="color:#000000;display:inline;fill:#000000;stroke-linecap:round;-inkscape-stroke:none"
         id="path76-8-0-9-0-1-7"
         transform="matrix(0.70980771,0.45616564,-0.51259039,0.79760633,138.7305,20.105224)"
         d="m 141.467,70.225 c -24.54069,0 -8.93169,33.45808 -2.43804,45.63528 1.29922,2.43637 3.57689,2.43632 4.87614,-1.1e-4 6.49368,-12.1773 22.10251,-45.63517 -2.4381,-45.63517 z" />
      <path
         style="color:#000000;display:inline;fill:#000000;stroke-linecap:round;-inkscape-stroke:none"
         id="path76"
         transform="matrix(0.42575459,0.66248719,-0.74443259,0.47841768,230.75896,50.968595)"
         d="m 141.467,70.225 c -24.54069,0 -8.93169,33.45808 -2.43804,45.63528 1.29922,2.43637 3.57689,2.43632 4.87614,-1.1e-4 6.49368,-12.1773 22.10251,-45.63517 -2.4381,-45.63517 z" />
      <path
         style="color:#000000;display:inline;fill:#000000;stroke-linecap:round;-inkscape-stroke:none"
         id="path76-8"
         transform="matrix(0.10406777,0.72380692,-0.81333716,0.11694029,297.59783,116.08953)"
         d="m 141.467,70.225 c -24.54069,0 -8.93169,33.45808 -2.43804,45.63528 1.29922,2.43637 3.57689,2.43632 4.87614,-1.1e-4 6.49368,-12.1773 22.10251,-45.63517 -2.4381,-45.63517 z" />
      <path
         style="color:#000000;display:inline;fill:#000000;stroke-linecap:round;-inkscape-stroke:none"
         id="path76-8-0"
         transform="matrix(-0.19016962,0.64765772,-0.72776879,-0.21369237,328.15018,200.3319)"
         d="m 141.467,70.225 c -24.54069,0 -8.93169,33.45808 -2.43804,45.63528 1.29922,2.43637 3.57689,2.43632 4.87614,-1.1e-4 6.49368,-12.1773 22.10251,-45.63517 -2.4381,-45.63517 z" />
      <path
         style="color:#000000;display:inline;fill:#000000;stroke-linecap:round;-inkscape-stroke:none"
         id="path76-8-0-9"
         transform="matrix(-0.40519514,0.46762001,-0.52546157,-0.45531513,319.18682,285.81608)"
         d="m 141.467,70.225 c -24.54069,0 -8.93169,33.45808 -2.43804,45.63528 1.29922,2.43637 3.57689,2.43632 4.87614,-1.1e-4 6.49368,-12.1773 22.10251,-45.63517 -2.4381,-45.63517 z" />
      <path
         style="color:#000000;display:inline;fill:#000000;stroke-linecap:round;-inkscape-stroke:none"
         id="path76-8-0-9-0"
         transform="matrix(-0.511668,0.23367097,-0.26257455,-0.574958,275.51588,355.63045)"
         d="m 141.467,70.225 c -24.54069,0 -8.93169,33.45808 -2.43804,45.63528 1.29922,2.43637 3.57689,2.43632 4.87614,-1.1e-4 6.49368,-12.1773 22.10251,-45.63517 -2.4381,-45.63517 z" />
      <path
         style="color:#000000;display:inline;fill:#000000;stroke-linecap:round;-inkscape-stroke:none"
         id="path76-8-0-9-0-1"
         transform="matrix(-0.50624999,0,0,-0.56886986,208.53739,397.15197)"
         d="m 141.467,70.225 c -24.54069,0 -8.93169,33.45808 -2.43804,45.63528 1.29922,2.43637 3.57689,2.43632 4.87614,-1.1e-4 6.49368,-12.1773 22.10251,-45.63517 -2.4381,-45.63517 z" />
    </g>
    <g
       id="g172"
       style="display:inline"
       transform="translate(8.8333334e-6)">
      <path
         style="color:#000000;display:inline;fill:#292f56;stroke-linecap:round;-inkscape-stroke:none"
         id="path158"
         transform="matrix(0,-1.125,1.2641552,0,-81.481389,403.22763)"
         d="m 141.467,70.225 c -24.54069,0 -8.93169,33.45808 -2.43804,45.63528 1.29922,2.43637 3.57689,2.43632 4.87614,-1.1e-4 6.49368,-12.1773 22.10251,-45.63517 -2.4381,-45.63517 z" />
      <path
         style="color:#000000;display:inline;fill:#3a3362;stroke-linecap:round;-inkscape-stroke:none"
         id="path159"
         transform="matrix(0.4439748,-0.97216918,1.0924203,0.49889161,-119.49098,292.81744)"
         d="m 141.467,70.225 c -24.54069,0 -8.93169,33.45808 -2.43804,45.63528 1.29922,2.43637 3.57689,2.43632 4.87614,-1.1e-4 6.49368,-12.1773 22.10251,-45.63517 -2.4381,-45.63517 z" />
      <path
         style="color:#000000;display:inline;fill:#4e366c;stroke-linecap:round;-inkscape-stroke:none"
         id="path160"
         transform="matrix(0.76519651,-0.66304644,0.74506098,0.85984636,-106.81956,181.13936)"
         d="m 141.467,70.225 c -24.54069,0 -8.93169,33.45808 -2.43804,45.63528 1.29922,2.43637 3.57689,2.43632 4.87614,-1.1e-4 6.49368,-12.1773 22.10251,-45.63517 -2.4381,-45.63517 z" />
      <path
         style="color:#000000;display:inline;fill:#633873;stroke-linecap:round;-inkscape-stroke:none"
         id="path161"
         transform="matrix(0.91751518,-0.26940671,0.30273056,1.0310058,-49.495066,88.996492)"
         d="m 141.467,70.225 c -24.54069,0 -8.93169,33.45808 -2.43804,45.63528 1.29922,2.43637 3.57689,2.43632 4.87614,-1.1e-4 6.49368,-12.1773 22.10251,-45.63517 -2.4381,-45.63517 z" />
      <path
         style="color:#000000;display:inline;fill:#793878;stroke-linecap:round;-inkscape-stroke:none"
         id="path162"
         transform="matrix(0.89083928,0.12808348,-0.14392658,1.0010304,38.649662,32.548277)"
         d="m 141.467,70.225 c -24.54069,0 -8.93169,33.45808 -2.43804,45.63528 1.29922,2.43637 3.57689,2.43632 4.87614,-1.1e-4 6.49368,-12.1773 22.10251,-45.63517 -2.4381,-45.63517 z" />
      <path
         style="color:#000000;display:inline;fill:#8f3879;stroke-linecap:round;-inkscape-stroke:none"
         id="path163"
         transform="matrix(0.70980771,0.45616564,-0.51259039,0.79760633,138.7305,20.105224)"
         d="m 141.467,70.225 c -24.54069,0 -8.93169,33.45808 -2.43804,45.63528 1.29922,2.43637 3.57689,2.43632 4.87614,-1.1e-4 6.49368,-12.1773 22.10251,-45.63517 -2.4381,-45.63517 z" />
      <path
         style="color:#000000;display:inline;fill:#8f3879;stroke-linecap:round;-inkscape-stroke:none"
         id="path164"
         transform="matrix(0.42575459,0.66248719,-0.74443259,0.47841768,230.75896,50.968595)"
         d="m 141.467,70.225 c -24.54069,0 -8.93169,33.45808 -2.43804,45.63528 1.29922,2.43637 3.57689,2.43632 4.87614,-1.1e-4 6.49368,-12.1773 22.10251,-45.63517 -2.4381,-45.63517 z" />
      <path
         style="color:#000000;display:inline;fill:#ab3777;stroke-linecap:round;-inkscape-stroke:none"
         id="path165"
         transform="matrix(0.10406777,0.72380692,-0.81333716,0.11694029,297.59783,116.08953)"
         d="m 141.467,70.225 c -24.54069,0 -8.93169,33.45808 -2.43804,45.63528 1.29922,2.43637 3.57689,2.43632 4.87614,-1.1e-4 6.49368,-12.1773 22.10251,-45.63517 -2.4381,-45.63517 z" />
      <path
         style="color:#000000;display:inline;fill:#c5386f;stroke-linecap:round;-inkscape-stroke:none"
         id="path169"
         transform="matrix(-0.19016962,0.64765772,-0.72776879,-0.21369237,328.15018,200.3319)"
         d="m 141.467,70.225 c -24.54069,0 -8.93169,33.45808 -2.43804,45.63528 1.29922,2.43637 3.57689,2.43632 4.87614,-1.1e-4 6.49368,-12.1773 22.10251,-45.63517 -2.4381,-45.63517 z" />
      <path
         style="color:#000000;display:inline;fill:#db3e63;stroke-linecap:round;-inkscape-stroke:none"
         id="path170"
         transform="matrix(-0.40519514,0.46762001,-0.52546157,-0.45531513,319.18682,285.81608)"
         d="m 141.467,70.225 c -24.54069,0 -8.93169,33.45808 -2.43804,45.63528 1.29922,2.43637 3.57689,2.43632 4.87614,-1.1e-4 6.49368,-12.1773 22.10251,-45.63517 -2.4381,-45.63517 z" />
      <path
         style="color:#000000;display:inline;fill:#ec4b53;stroke-linecap:round;-inkscape-stroke:none"
         id="path171"
         transform="matrix(-0.511668,0.23367097,-0.26257455,-0.574958,275.51588,355.63045)"
         d="m 141.467,70.225 c -24.54069,0 -8.93169,33.45808 -2.43804,45.63528 1.29922,2.43637 3.57689,2.43632 4.87614,-1.1e-4 6.49368,-12.1773 22.10251,-45.63517 -2.4381,-45.63517 z" />
      <path
         style="color:#000000;display:inline;fill:#f85e3f;stroke-linecap:round;-inkscape-stroke:none"
         id="path172"
         transform="matrix(-0.50624999,0,0,-0.56886986,208.53739,397.15197)"
         d="m 141.467,70.225 c -24.54069,0 -8.93169,33.45808 -2.43804,45.63528 1.29922,2.43637 3.57689,2.43632 4.87614,-1.1e-4 6.49368,-12.1773 22.10251,-45.63517 -2.4381,-45.63517 z" />
    </g>
    <g
       id="g122"
       style="display:none">
      <path
         style="color:#000000;display:inline;fill:#292f56;stroke-linecap:round;-inkscape-stroke:none"
         id="path99"
         transform="matrix(0,-1.125,1.2641552,0,-81.855566,402.85345)"
         d="m 141.467,70.225 c -24.54069,0 -8.93169,33.45808 -2.43804,45.63528 1.29922,2.43637 3.57689,2.43632 4.87614,-1.1e-4 6.49368,-12.1773 22.10251,-45.63517 -2.4381,-45.63517 z" />
      <path
         style="color:#000000;display:inline;fill:#292f56;stroke-linecap:round;-inkscape-stroke:none"
         id="path100"
         transform="matrix(0.4439748,-0.97216918,1.0924203,0.49889161,-119.49098,292.81744)"
         d="m 141.467,70.225 c -24.54069,0 -8.93169,33.45808 -2.43804,45.63528 1.29922,2.43637 3.57689,2.43632 4.87614,-1.1e-4 6.49368,-12.1773 22.10251,-45.63517 -2.4381,-45.63517 z" />
      <path
         style="color:#000000;display:inline;fill:#292f56;stroke-linecap:round;-inkscape-stroke:none"
         id="path101"
         transform="matrix(0.76519651,-0.66304644,0.74506098,0.85984636,-106.81956,181.13936)"
         d="m 141.467,70.225 c -24.54069,0 -8.93169,33.45808 -2.43804,45.63528 1.29922,2.43637 3.57689,2.43632 4.87614,-1.1e-4 6.49368,-12.1773 22.10251,-45.63517 -2.4381,-45.63517 z" />
      <path
         style="color:#000000;display:inline;fill:#292f56;stroke-linecap:round;-inkscape-stroke:none"
         id="path102"
         transform="matrix(0.91751518,-0.26940671,0.30273056,1.0310058,-49.495066,88.996492)"
         d="m 141.467,70.225 c -24.54069,0 -8.93169,33.45808 -2.43804,45.63528 1.29922,2.43637 3.57689,2.43632 4.87614,-1.1e-4 6.49368,-12.1773 22.10251,-45.63517 -2.4381,-45.63517 z" />
      <path
         style="color:#000000;display:inline;fill:#8f3879;stroke-linecap:round;-inkscape-stroke:none"
         id="path103"
         transform="matrix(0.89083928,0.12808348,-0.14392658,1.0010304,38.649662,32.548277)"
         d="m 141.467,70.225 c -24.54069,0 -8.93169,33.45808 -2.43804,45.63528 1.29922,2.43637 3.57689,2.43632 4.87614,-1.1e-4 6.49368,-12.1773 22.10251,-45.63517 -2.4381,-45.63517 z" />
      <path
         style="color:#000000;display:inline;fill:#8f3879;stroke-linecap:round;-inkscape-stroke:none"
         id="path104"
         transform="matrix(0.70980771,0.45616564,-0.51259039,0.79760633,138.7305,20.105224)"
         d="m 141.467,70.225 c -24.54069,0 -8.93169,33.45808 -2.43804,45.63528 1.29922,2.43637 3.57689,2.43632 4.87614,-1.1e-4 6.49368,-12.1773 22.10251,-45.63517 -2.4381,-45.63517 z" />
      <path
         style="color:#000000;display:inline;fill:#8f3879;stroke-linecap:round;-inkscape-stroke:none"
         id="path117"
         transform="matrix(0.42575459,0.66248719,-0.74443259,0.47841768,230.75896,50.968595)"
         d="m 141.467,70.225 c -24.54069,0 -8.93169,33.45808 -2.43804,45.63528 1.29922,2.43637 3.57689,2.43632 4.87614,-1.1e-4 6.49368,-12.1773 22.10251,-45.63517 -2.4381,-45.63517 z" />
      <path
         style="color:#000000;display:inline;fill:#8f3879;stroke-linecap:round;-inkscape-stroke:none"
         id="path118"
         transform="matrix(0.10406777,0.72380692,-0.81333716,0.11694029,297.59783,116.08953)"
         d="m 141.467,70.225 c -24.54069,0 -8.93169,33.45808 -2.43804,45.63528 1.29922,2.43637 3.57689,2.43632 4.87614,-1.1e-4 6.49368,-12.1773 22.10251,-45.63517 -2.4381,-45.63517 z" />
      <path
         style="color:#000000;display:inline;fill:#f85e3f;stroke-linecap:round;-inkscape-stroke:none"
         id="path119"
         transform="matrix(-0.19016962,0.64765772,-0.72776879,-0.21369237,328.15018,200.3319)"
         d="m 141.467,70.225 c -24.54069,0 -8.93169,33.45808 -2.43804,45.63528 1.29922,2.43637 3.57689,2.43632 4.87614,-1.1e-4 6.49368,-12.1773 22.10251,-45.63517 -2.4381,-45.63517 z" />
      <path
         style="color:#000000;display:inline;fill:#f85e3f;stroke-linecap:round;-inkscape-stroke:none"
         id="path120"
         transform="matrix(-0.40519514,0.46762001,-0.52546157,-0.45531513,319.18682,285.81608)"
         d="m 141.467,70.225 c -24.54069,0 -8.93169,33.45808 -2.43804,45.63528 1.29922,2.43637 3.57689,2.43632 4.87614,-1.1e-4 6.49368,-12.1773 22.10251,-45.63517 -2.4381,-45.63517 z" />
      <path
         style="color:#000000;display:inline;fill:#f85e3f;stroke-linecap:round;-inkscape-stroke:none"
         id="path121"
         transform="matrix(-0.511668,0.23367097,-0.26257455,-0.574958,275.51588,355.63045)"
         d="m 141.467,70.225 c -24.54069,0 -8.93169,33.45808 -2.43804,45.63528 1.29922,2.43637 3.57689,2.43632 4.87614,-1.1e-4 6.49368,-12.1773 22.10251,-45.63517 -2.4381,-45.63517 z" />
      <path
         style="color:#000000;display:inline;fill:#f85e3f;stroke-linecap:round;-inkscape-stroke:none"
         id="path122"
         transform="matrix(-0.50624999,0,0,-0.56886986,208.53739,397.15197)"
         d="m 141.467,70.225 c -24.54069,0 -8.93169,33.45808 -2.43804,45.63528 1.29922,2.43637 3.57689,2.43632 4.87614,-1.1e-4 6.49368,-12.1773 22.10251,-45.63517 -2.4381,-45.63517 z" />
    </g>
    <g
       id="g97"
       style="display:none">
      <path
         style="color:#000000;display:inline;fill:#ffffff;fill-opacity:1;stroke-linecap:round;-inkscape-stroke:none"
         id="path86"
         transform="matrix(0,-1.125,1.2641552,0,-81.855566,402.85345)"
         d="m 141.467,70.225 c -24.54069,0 -8.93169,33.45808 -2.43804,45.63528 1.29922,2.43637 3.57689,2.43632 4.87614,-1.1e-4 6.49368,-12.1773 22.10251,-45.63517 -2.4381,-45.63517 z" />
      <path
         style="color:#000000;display:inline;fill:#ffffff;fill-opacity:1;stroke-linecap:round;-inkscape-stroke:none"
         id="path87"
         transform="matrix(0.4439748,-0.97216918,1.0924203,0.49889161,-119.49098,292.81744)"
         d="m 141.467,70.225 c -24.54069,0 -8.93169,33.45808 -2.43804,45.63528 1.29922,2.43637 3.57689,2.43632 4.87614,-1.1e-4 6.49368,-12.1773 22.10251,-45.63517 -2.4381,-45.63517 z" />
      <path
         style="color:#000000;display:inline;fill:#ffffff;fill-opacity:1;stroke-linecap:round;-inkscape-stroke:none"
         id="path88"
         transform="matrix(0.76519651,-0.66304644,0.74506098,0.85984636,-106.81956,181.13936)"
         d="m 141.467,70.225 c -24.54069,0 -8.93169,33.45808 -2.43804,45.63528 1.29922,2.43637 3.57689,2.43632 4.87614,-1.1e-4 6.49368,-12.1773 22.10251,-45.63517 -2.4381,-45.63517 z" />
      <path
         style="color:#000000;display:inline;fill:#ffffff;fill-opacity:1;stroke-linecap:round;-inkscape-stroke:none"
         id="path89"
         transform="matrix(0.91751518,-0.26940671,0.30273056,1.0310058,-49.495066,88.996492)"
         d="m 141.467,70.225 c -24.54069,0 -8.93169,33.45808 -2.43804,45.63528 1.29922,2.43637 3.57689,2.43632 4.87614,-1.1e-4 6.49368,-12.1773 22.10251,-45.63517 -2.4381,-45.63517 z" />
      <path
         style="color:#000000;display:inline;fill:#ffffff;fill-opacity:1;stroke-linecap:round;-inkscape-stroke:none"
         id="path90"
         transform="matrix(0.89083928,0.12808348,-0.14392658,1.0010304,38.649662,32.548277)"
         d="m 141.467,70.225 c -24.54069,0 -8.93169,33.45808 -2.43804,45.63528 1.29922,2.43637 3.57689,2.43632 4.87614,-1.1e-4 6.49368,-12.1773 22.10251,-45.63517 -2.4381,-45.63517 z" />
      <path
         style="color:#000000;display:inline;fill:#ffffff;fill-opacity:1;stroke-linecap:round;-inkscape-stroke:none"
         id="path91"
         transform="matrix(0.70980771,0.45616564,-0.51259039,0.79760633,138.7305,20.105224)"
         d="m 141.467,70.225 c -24.54069,0 -8.93169,33.45808 -2.43804,45.63528 1.29922,2.43637 3.57689,2.43632 4.87614,-1.1e-4 6.49368,-12.1773 22.10251,-45.63517 -2.4381,-45.63517 z" />
      <path
         style="color:#000000;display:inline;fill:#ffffff;fill-opacity:1;stroke-linecap:round;-inkscape-stroke:none"
         id="path92"
         transform="matrix(0.42575459,0.66248719,-0.74443259,0.47841768,230.75896,50.968595)"
         d="m 141.467,70.225 c -24.54069,0 -8.93169,33.45808 -2.43804,45.63528 1.29922,2.43637 3.57689,2.43632 4.87614,-1.1e-4 6.49368,-12.1773 22.10251,-45.63517 -2.4381,-45.63517 z" />
      <path
         style="color:#000000;display:inline;fill:#ffffff;fill-opacity:1;stroke-linecap:round;-inkscape-stroke:none"
         id="path93"
         transform="matrix(0.10406777,0.72380692,-0.81333716,0.11694029,297.59783,116.08953)"
         d="m 141.467,70.225 c -24.54069,0 -8.93169,33.45808 -2.43804,45.63528 1.29922,2.43637 3.57689,2.43632 4.87614,-1.1e-4 6.49368,-12.1773 22.10251,-45.63517 -2.4381,-45.63517 z" />
      <path
         style="color:#000000;display:inline;fill:#ffffff;fill-opacity:1;stroke-linecap:round;-inkscape-stroke:none"
         id="path94"
         transform="matrix(-0.19016962,0.64765772,-0.72776879,-0.21369237,328.15018,200.3319)"
         d="m 141.467,70.225 c -24.54069,0 -8.93169,33.45808 -2.43804,45.63528 1.29922,2.43637 3.57689,2.43632 4.87614,-1.1e-4 6.49368,-12.1773 22.10251,-45.63517 -2.4381,-45.63517 z" />
      <path
         style="color:#000000;display:inline;fill:#ffffff;fill-opacity:1;stroke-linecap:round;-inkscape-stroke:none"
         id="path95"
         transform="matrix(-0.40519514,0.46762001,-0.52546157,-0.45531513,319.18682,285.81608)"
         d="m 141.467,70.225 c -24.54069,0 -8.93169,33.45808 -2.43804,45.63528 1.29922,2.43637 3.57689,2.43632 4.87614,-1.1e-4 6.49368,-12.1773 22.10251,-45.63517 -2.4381,-45.63517 z" />
      <path
         style="color:#000000;display:inline;fill:#ffffff;fill-opacity:1;stroke-linecap:round;-inkscape-stroke:none"
         id="path96"
         transform="matrix(-0.511668,0.23367097,-0.26257455,-0.574958,275.51588,355.63045)"
         d="m 141.467,70.225 c -24.54069,0 -8.93169,33.45808 -2.43804,45.63528 1.29922,2.43637 3.57689,2.43632 4.87614,-1.1e-4 6.49368,-12.1773 22.10251,-45.63517 -2.4381,-45.63517 z" />
      <path
         style="color:#000000;display:inline;fill:#ffffff;fill-opacity:1;stroke-linecap:round;-inkscape-stroke:none"
         id="path97"
         transform="matrix(-0.50624999,0,0,-0.56886986,208.53739,397.15197)"
         d="m 141.467,70.225 c -24.54069,0 -8.93169,33.45808 -2.43804,45.63528 1.29922,2.43637 3.57689,2.43632 4.87614,-1.1e-4 6.49368,-12.1773 22.10251,-45.63517 -2.4381,-45.63517 z" />
    </g>
  </g>
</svg>
